<svg width="704" height="704" viewBox="0 0 704 704" fill="none" xmlns="http://www.w3.org/2000/svg">
<path fill-rule="evenodd" clip-rule="evenodd" d="M351.881 290.274C411.185 286.567 401 247 401 247C401 247 415.544 304.727 466.37 296.036C517.197 287.346 510.485 168.022 510.485 168.022C510.485 168.022 533.639 235.249 594.638 208.098C625.628 194.304 625.037 143.323 603.579 104.732C618.478 107.85 684.039 134.595 683.099 217.742C681.96 318.445 586.251 319.933 544.956 315.051C535.02 313.876 493.213 315.014 512.779 351.882C526.963 378.607 575.051 414.865 635.614 426.746C565.646 429.298 544.662 433.188 544.956 448.528C545.321 467.493 570.68 500.704 609.49 555.886C548.49 525.24 524.047 527.613 511.356 530.533C501.156 532.88 498.188 546.494 501.731 605.773C463.079 551.87 426.73 539.162 351.881 539.641C277.033 539.162 240.684 551.87 202.032 605.773C205.575 546.494 202.607 532.88 192.407 530.533C179.716 527.613 155.273 525.24 94.2732 555.886C133.083 500.704 158.443 467.493 158.807 448.528C159.101 433.188 138.116 429.298 68.1486 426.746C128.712 414.865 176.8 378.607 190.984 351.882C210.55 315.014 168.743 313.876 158.807 315.051C117.512 319.933 21.8032 318.445 20.6642 217.742C19.7236 134.595 85.285 107.85 100.184 104.732C78.7265 143.323 78.1348 194.304 109.125 208.098C170.124 235.249 193.278 168.022 193.278 168.022C193.278 168.022 186.566 287.346 237.393 296.036C288.219 304.727 302.5 247 302.5 247C302.5 247 292.578 286.567 351.881 290.274Z" fill="black"/>
</svg>
